<?xml version="1.0" encoding="UTF-8" standalone="no"?>
<svg xmlns="http://www.w3.org/2000/svg" width="720" height="380" viewBox="0 0 720 380">
  <!-- CurveAndDrag v2.8.1 - 48HP Professional Studio Panel -->
  
  <defs>
    <!-- Professional gradients -->
    <linearGradient id="panelGrad" x1="0%" y1="0%" x2="100%" y2="100%">
      <stop offset="0%" style="stop-color:#2c2c2c;stop-opacity:1" />
      <stop offset="50%" style="stop-color:#1a1a1a;stop-opacity:1" />
      <stop offset="100%" style="stop-color:#0f0f0f;stop-opacity:1" />
    </linearGradient>
    
    <radialGradient id="knobGrad" cx="30%" cy="30%" r="70%">
      <stop offset="0%" style="stop-color:#666;stop-opacity:1" />
      <stop offset="100%" style="stop-color:#333;stop-opacity:1" />
    </radialGradient>
    
    <radialGradient id="largeKnobGrad" cx="30%" cy="30%" r="70%">
      <stop offset="0%" style="stop-color:#777;stop-opacity:1" />
      <stop offset="100%" style="stop-color:#444;stop-opacity:1" />
    </radialGradient>
    
    <radialGradient id="portGrad" cx="50%" cy="50%" r="50%">
      <stop offset="0%" style="stop-color:#333;stop-opacity:1" />
      <stop offset="100%" style="stop-color:#111;stop-opacity:1" />
    </radialGradient>
  </defs>
  
  <!-- Main panel background -->
  <rect x="0" y="0" width="720" height="380" fill="url(#panelGrad)" stroke="#000" stroke-width="1"/>
  
  <!-- Header -->
  <text x="360" y="20" font-family="Arial, sans-serif" font-size="16" font-weight="bold" text-anchor="middle" fill="#ddd">CURVE&amp;DRAG</text>
  <text x="360" y="33" font-family="Arial, sans-serif" font-size="9" text-anchor="middle" fill="#888">v2.8.1 STUDIO EDITION</text>
  
  <!-- Section headers with clear dividers -->
  <text x="60" y="50" font-family="Arial, sans-serif" font-size="9" font-weight="bold" text-anchor="middle" fill="#aaa">INPUT + SYNC</text>
  <text x="180" y="50" font-family="Arial, sans-serif" font-size="9" font-weight="bold" text-anchor="middle" fill="#aaa">DELAY ENGINE</text>
  <text x="300" y="50" font-family="Arial, sans-serif" font-size="9" font-weight="bold" text-anchor="middle" fill="#aaa">PITCH SYSTEM</text>
  <text x="420" y="50" font-family="Arial, sans-serif" font-size="9" font-weight="bold" text-anchor="middle" fill="#aaa">TAPE DSP</text>
  <text x="540" y="50" font-family="Arial, sans-serif" font-size="9" font-weight="bold" text-anchor="middle" fill="#aaa">MODULATION</text>
  <text x="660" y="50" font-family="Arial, sans-serif" font-size="9" font-weight="bold" text-anchor="middle" fill="#aaa">OUTPUT</text>
  
  <!-- Clean section dividers -->
  <line x1="10" y1="55" x2="710" y2="55" stroke="#444" stroke-width="1"/>
  <line x1="120" y1="55" x2="120" y2="375" stroke="#333" stroke-width="0.8"/>
  <line x1="240" y1="55" x2="240" y2="375" stroke="#333" stroke-width="0.8"/>
  <line x1="360" y1="55" x2="360" y2="375" stroke="#333" stroke-width="0.8"/>
  <line x1="480" y1="55" x2="480" y2="375" stroke="#333" stroke-width="0.8"/>
  <line x1="600" y1="55" x2="600" y2="375" stroke="#333" stroke-width="0.8"/>
  
  <!-- ===== SECTION 1: INPUT + SYNC (0-120px) ===== -->
  
  <!-- Input Gain -->
  <circle cx="30" cy="80" r="15" fill="url(#knobGrad)" stroke="#777" stroke-width="1"/>
  <circle cx="30" cy="80" r="2" fill="#ddd"/>
  <text x="30" y="102" font-family="Arial, sans-serif" font-size="7" text-anchor="middle" fill="#bbb">INPUT</text>
  <text x="30" y="111" font-family="Arial, sans-serif" font-size="7" text-anchor="middle" fill="#bbb">GAIN</text>
  
  <!-- Input Gain CV -->
  <circle cx="30" cy="125" r="5" fill="url(#portGrad)" stroke="#555" stroke-width="0.5"/>
  <text x="30" y="137" font-family="Arial, sans-serif" font-size="6" text-anchor="middle" fill="#888">CV</text>
  
  <!-- Audio inputs -->
  <circle cx="70" cy="80" r="6" fill="url(#portGrad)" stroke="#666" stroke-width="0.8"/>
  <text x="70" y="72" font-family="Arial, sans-serif" font-size="7" text-anchor="middle" fill="#bbb">L IN</text>
  <circle cx="90" cy="80" r="6" fill="url(#portGrad)" stroke="#666" stroke-width="0.8"/>
  <text x="90" y="72" font-family="Arial, sans-serif" font-size="7" text-anchor="middle" fill="#bbb">R IN</text>
  
  <!-- Tempo Sync section -->
  <text x="60" y="115" font-family="Arial, sans-serif" font-size="8" font-weight="bold" text-anchor="middle" fill="#aaa">TEMPO SYNC</text>
  
  <!-- Left sync controls -->
  <rect x="25" y="125" width="12" height="8" rx="2" fill="#1a1a1a" stroke="#666" stroke-width="0.5"/>
  <text x="31" y="121" font-family="Arial, sans-serif" font-size="6" text-anchor="middle" fill="#aaa">L SYNC</text>
  <circle cx="31" cy="140" r="2" fill="#0088ff"/>
  
  <!-- Left subdivision -->
  <circle cx="31" cy="155" r="12" fill="url(#knobGrad)" stroke="#666" stroke-width="0.5"/>
  <circle cx="31" cy="155" r="1.5" fill="#ccc"/>
  <text x="31" y="172" font-family="Arial, sans-serif" font-size="6" text-anchor="middle" fill="#aaa">L SUB</text>
  
  <!-- Right sync controls -->
  <rect x="85" y="125" width="12" height="8" rx="2" fill="#1a1a1a" stroke="#666" stroke-width="0.5"/>
  <text x="91" y="121" font-family="Arial, sans-serif" font-size="6" text-anchor="middle" fill="#aaa">R SYNC</text>
  <circle cx="91" cy="140" r="2" fill="#0088ff"/>
  
  <!-- Right subdivision -->
  <circle cx="91" cy="155" r="12" fill="url(#knobGrad)" stroke="#666" stroke-width="0.5"/>
  <circle cx="91" cy="155" r="1.5" fill="#ccc"/>
  <text x="91" y="172" font-family="Arial, sans-serif" font-size="6" text-anchor="middle" fill="#aaa">R SUB</text>
  
  <!-- Main Pitch knob -->
  <circle cx="60" cy="210" r="22" fill="url(#largeKnobGrad)" stroke="#888" stroke-width="1"/>
  <circle cx="60" cy="210" r="3" fill="#ddd"/>
  <text x="60" y="240" font-family="Arial, sans-serif" font-size="8" font-weight="bold" text-anchor="middle" fill="#bbb">MAIN PITCH</text>
  
  <!-- Character knob -->
  <circle cx="60" cy="270" r="15" fill="url(#knobGrad)" stroke="#777" stroke-width="1"/>
  <circle cx="60" cy="270" r="2" fill="#ddd"/>
  <text x="60" y="292" font-family="Arial, sans-serif" font-size="7" text-anchor="middle" fill="#bbb">CHARACTER</text>
  <text x="60" y="301" font-family="Arial, sans-serif" font-size="6" text-anchor="middle" fill="#888">Vintage Model</text>
  
  <!-- Tap tempo inputs -->
  <circle cx="20" cy="320" r="5" fill="url(#portGrad)" stroke="#555" stroke-width="0.5"/>
  <text x="20" y="334" font-family="Arial, sans-serif" font-size="5" text-anchor="middle" fill="#777">TAP L</text>
  <circle cx="40" cy="320" r="5" fill="url(#portGrad)" stroke="#555" stroke-width="0.5"/>
  <text x="40" y="334" font-family="Arial, sans-serif" font-size="5" text-anchor="middle" fill="#777">TAP R</text>
  <circle cx="80" cy="320" r="5" fill="url(#portGrad)" stroke="#555" stroke-width="0.5"/>
  <text x="80" y="334" font-family="Arial, sans-serif" font-size="5" text-anchor="middle" fill="#777">PITCH CV</text>
  <circle cx="100" cy="320" r="5" fill="url(#portGrad)" stroke="#555" stroke-width="0.5"/>
  <text x="100" y="334" font-family="Arial, sans-serif" font-size="5" text-anchor="middle" fill="#777">CHAR CV</text>
  
  <!-- ===== SECTION 2: DELAY ENGINE (120-240px) ===== -->
  
  <!-- Time controls -->
  <circle cx="150" cy="80" r="18" fill="url(#largeKnobGrad)" stroke="#888" stroke-width="1"/>
  <circle cx="150" cy="80" r="3" fill="#ddd"/>
  <text x="150" y="106" font-family="Arial, sans-serif" font-size="7" text-anchor="middle" fill="#bbb">TIME L</text>
  
  <circle cx="210" cy="80" r="18" fill="url(#largeKnobGrad)" stroke="#888" stroke-width="1"/>
  <circle cx="210" cy="80" r="3" fill="#ddd"/>
  <text x="210" y="106" font-family="Arial, sans-serif" font-size="7" text-anchor="middle" fill="#bbb">TIME R</text>
  
  <!-- Feedback controls -->
  <circle cx="150" cy="140" r="16" fill="url(#knobGrad)" stroke="#777" stroke-width="1"/>
  <circle cx="150" cy="140" r="2.5" fill="#ddd"/>
  <text x="150" y="163" font-family="Arial, sans-serif" font-size="7" text-anchor="middle" fill="#bbb">FEEDBACK</text>
  
  <circle cx="210" cy="140" r="16" fill="url(#knobGrad)" stroke="#777" stroke-width="1"/>
  <circle cx="210" cy="140" r="2.5" fill="#ddd"/>
  <text x="210" y="163" font-family="Arial, sans-serif" font-size="7" text-anchor="middle" fill="#bbb">FEEDBACK</text>
  
  <!-- Mix controls -->
  <circle cx="150" cy="200" r="14" fill="url(#knobGrad)" stroke="#777" stroke-width="0.8"/>
  <circle cx="150" cy="200" r="2" fill="#ddd"/>
  <text x="150" y="220" font-family="Arial, sans-serif" font-size="7" text-anchor="middle" fill="#bbb">MIX L</text>
  
  <circle cx="210" cy="200" r="14" fill="url(#knobGrad)" stroke="#777" stroke-width="0.8"/>
  <circle cx="210" cy="200" r="2" fill="#ddd"/>
  <text x="210" y="220" font-family="Arial, sans-serif" font-size="7" text-anchor="middle" fill="#bbb">MIX R</text>
  
  <!-- Cross-feedback -->
  <rect x="174" y="240" width="12" height="8" rx="2" fill="#1a1a1a" stroke="#666" stroke-width="0.5"/>
  <text x="180" y="236" font-family="Arial, sans-serif" font-size="6" text-anchor="middle" fill="#aaa">X-FEED</text>
  <circle cx="180" cy="255" r="2.5" fill="#00ff00"/>
  
  <!-- Head Configuration -->
  <circle cx="180" cy="280" r="12" fill="url(#knobGrad)" stroke="#777" stroke-width="0.8"/>
  <circle cx="180" cy="280" r="2" fill="#ddd"/>
  <text x="180" y="298" font-family="Arial, sans-serif" font-size="6" text-anchor="middle" fill="#bbb">HEAD CFG</text>
  <text x="180" y="307" font-family="Arial, sans-serif" font-size="5" text-anchor="middle" fill="#888">(1-4)</text>
  
  <!-- CV inputs row -->
  <circle cx="130" cy="320" r="4" fill="url(#portGrad)" stroke="#555" stroke-width="0.5"/>
  <text x="130" y="332" font-family="Arial, sans-serif" font-size="5" text-anchor="middle" fill="#777">T-L</text>
  <circle cx="150" cy="320" r="4" fill="url(#portGrad)" stroke="#555" stroke-width="0.5"/>
  <text x="150" y="332" font-family="Arial, sans-serif" font-size="5" text-anchor="middle" fill="#777">F-L</text>
  <circle cx="170" cy="320" r="4" fill="url(#portGrad)" stroke="#555" stroke-width="0.5"/>
  <text x="170" y="332" font-family="Arial, sans-serif" font-size="5" text-anchor="middle" fill="#777">M-L</text>
  <circle cx="190" cy="320" r="4" fill="url(#portGrad)" stroke="#555" stroke-width="0.5"/>
  <text x="190" y="332" font-family="Arial, sans-serif" font-size="5" text-anchor="middle" fill="#777">F-R</text>
  <circle cx="210" cy="320" r="4" fill="url(#portGrad)" stroke="#555" stroke-width="0.5"/>
  <text x="210" y="332" font-family="Arial, sans-serif" font-size="5" text-anchor="middle" fill="#777">T-R</text>
  <circle cx="230" cy="320" r="4" fill="url(#portGrad)" stroke="#555" stroke-width="0.5"/>
  <text x="230" y="332" font-family="Arial, sans-serif" font-size="5" text-anchor="middle" fill="#777">M-R</text>
  
  <!-- Global mod inputs -->
  <circle cx="150" cy="350" r="4" fill="url(#portGrad)" stroke="#555" stroke-width="0.5"/>
  <text x="150" y="362" font-family="Arial, sans-serif" font-size="5" text-anchor="middle" fill="#777">TIME CV</text>
  <circle cx="180" cy="350" r="4" fill="url(#portGrad)" stroke="#555" stroke-width="0.5"/>
  <text x="180" y="362" font-family="Arial, sans-serif" font-size="5" text-anchor="middle" fill="#777">HEAD CV</text>
  <circle cx="210" cy="350" r="4" fill="url(#portGrad)" stroke="#555" stroke-width="0.5"/>
  <text x="210" y="362" font-family="Arial, sans-serif" font-size="5" text-anchor="middle" fill="#777">FEED CV</text>
  
  <!-- ===== SECTION 3: PITCH SYSTEM (240-360px) ===== -->
  
  <!-- Detune controls -->
  <circle cx="270" cy="80" r="16" fill="url(#knobGrad)" stroke="#777" stroke-width="1"/>
  <circle cx="270" cy="80" r="2.5" fill="#ddd"/>
  <text x="270" y="103" font-family="Arial, sans-serif" font-size="7" text-anchor="middle" fill="#bbb">DETUNE L</text>
  
  <circle cx="330" cy="80" r="16" fill="url(#knobGrad)" stroke="#777" stroke-width="1"/>
  <circle cx="330" cy="80" r="2.5" fill="#ddd"/>
  <text x="330" y="103" font-family="Arial, sans-serif" font-size="7" text-anchor="middle" fill="#bbb">DETUNE R</text>
  
  <!-- Detune Drift -->
  <circle cx="300" cy="130" r="14" fill="url(#knobGrad)" stroke="#777" stroke-width="0.8"/>
  <circle cx="300" cy="130" r="2" fill="#ddd"/>
  <text x="300" y="150" font-family="Arial, sans-serif" font-size="7" text-anchor="middle" fill="#bbb">DRIFT</text>
  
  <!-- Morph -->
  <circle cx="300" cy="180" r="14" fill="url(#knobGrad)" stroke="#777" stroke-width="0.8"/>
  <circle cx="300" cy="180" r="2" fill="#ddd"/>
  <text x="300" y="200" font-family="Arial, sans-serif" font-size="7" text-anchor="middle" fill="#bbb">MORPH</text>
  <circle cx="300" cy="165" r="2" fill="#ffaa00"/>
  
  <!-- Pitch Mode selector -->
  <circle cx="270" cy="230" r="12" fill="url(#knobGrad)" stroke="#777" stroke-width="0.8"/>
  <circle cx="270" cy="230" r="2" fill="#ddd"/>
  <text x="270" y="248" font-family="Arial, sans-serif" font-size="6" text-anchor="middle" fill="#bbb">ALGORITHM</text>
  <text x="270" y="257" font-family="Arial, sans-serif" font-size="5" text-anchor="middle" fill="#888">BBD/H910/Tape</text>
  
  <!-- Quantize toggle -->
  <rect x="324" y="226" width="12" height="8" rx="2" fill="#1a1a1a" stroke="#666" stroke-width="0.5"/>
  <text x="330" y="222" font-family="Arial, sans-serif" font-size="6" text-anchor="middle" fill="#aaa">QUANTIZE</text>
  <circle cx="330" cy="241" r="2.5" fill="#0088ff"/>
  
  <!-- Scale selector -->
  <circle cx="300" cy="280" r="12" fill="url(#knobGrad)" stroke="#777" stroke-width="0.8"/>
  <circle cx="300" cy="280" r="2" fill="#ddd"/>
  <text x="300" y="298" font-family="Arial, sans-serif" font-size="6" text-anchor="middle" fill="#bbb">SCALE</text>
  <text x="300" y="307" font-family="Arial, sans-serif" font-size="5" text-anchor="middle" fill="#888">(0-10)</text>
  
  <!-- MTS-ESP toggle -->
  <rect x="264" y="306" width="12" height="8" rx="2" fill="#1a1a1a" stroke="#666" stroke-width="0.5"/>
  <text x="270" y="302" font-family="Arial, sans-serif" font-size="6" text-anchor="middle" fill="#aaa">MTS-ESP</text>
  <circle cx="270" cy="321" r="2.5" fill="#00ff00"/>
  
  <!-- CV inputs -->
  <circle cx="260" cy="350" r="4" fill="url(#portGrad)" stroke="#555" stroke-width="0.5"/>
  <text x="260" y="362" font-family="Arial, sans-serif" font-size="5" text-anchor="middle" fill="#777">DET L</text>
  <circle cx="280" cy="350" r="4" fill="url(#portGrad)" stroke="#555" stroke-width="0.5"/>
  <text x="280" y="362" font-family="Arial, sans-serif" font-size="5" text-anchor="middle" fill="#777">DRIFT</text>
  <circle cx="300" cy="350" r="4" fill="url(#portGrad)" stroke="#555" stroke-width="0.5"/>
  <text x="300" y="362" font-family="Arial, sans-serif" font-size="5" text-anchor="middle" fill="#777">MORPH</text>
  <circle cx="320" cy="350" r="4" fill="url(#portGrad)" stroke="#555" stroke-width="0.5"/>
  <text x="320" y="362" font-family="Arial, sans-serif" font-size="5" text-anchor="middle" fill="#777">DET R</text>
  
  <!-- ===== SECTION 4: TAPE DSP (360-480px) ===== -->
  
  <!-- Tape enable -->
  <rect x="384" y="76" width="12" height="8" rx="2" fill="#1a1a1a" stroke="#666" stroke-width="0.5"/>
  <text x="390" y="72" font-family="Arial, sans-serif" font-size="7" font-weight="bold" text-anchor="middle" fill="#aaa">TAPE</text>
  <circle cx="390" cy="91" r="3" fill="#ff4400"/>
  
  <!-- Saturation -->
  <circle cx="390" cy="130" r="16" fill="url(#knobGrad)" stroke="#777" stroke-width="1"/>
  <circle cx="390" cy="130" r="2.5" fill="#ddd"/>
  <text x="390" y="153" font-family="Arial, sans-serif" font-size="7" text-anchor="middle" fill="#bbb">SATURATION</text>
  
  <!-- Aging -->
  <circle cx="450" cy="130" r="16" fill="url(#knobGrad)" stroke="#777" stroke-width="1"/>
  <circle cx="450" cy="130" r="2.5" fill="#ddd"/>
  <text x="450" y="153" font-family="Arial, sans-serif" font-size="7" text-anchor="middle" fill="#bbb">AGING</text>
  
  <!-- Instability -->
  <circle cx="420" cy="180" r="16" fill="url(#knobGrad)" stroke="#777" stroke-width="1"/>
  <circle cx="420" cy="180" r="2.5" fill="#ddd"/>
  <text x="420" y="203" font-family="Arial, sans-serif" font-size="7" text-anchor="middle" fill="#bbb">INSTABILITY</text>
  
  <!-- Tape Noise section -->
  <rect x="384" y="226" width="12" height="8" rx="2" fill="#1a1a1a" stroke="#666" stroke-width="0.5"/>
  <text x="390" y="222" font-family="Arial, sans-serif" font-size="6" text-anchor="middle" fill="#aaa">NOISE</text>
  <circle cx="390" cy="241" r="2.5" fill="#ffaa00"/>
  
  <!-- Tape Noise Amount - CORRECTED LABEL -->
  <circle cx="450" cy="230" r="14" fill="url(#knobGrad)" stroke="#777" stroke-width="0.8"/>
  <circle cx="450" cy="230" r="2" fill="#ddd"/>
  <text x="450" y="249" font-family="Arial, sans-serif" font-size="6" text-anchor="middle" fill="#bbb">AMOUNT</text>
  <text x="450" y="258" font-family="Arial, sans-serif" font-size="5" text-anchor="middle" fill="#888">(0-8%)</text>
  
  <!-- Head EQ controls -->
  <circle cx="380" cy="280" r="10" fill="url(#knobGrad)" stroke="#666" stroke-width="0.5"/>
  <circle cx="380" cy="280" r="1.5" fill="#ccc"/>
  <text x="380" y="296" font-family="Arial, sans-serif" font-size="5" text-anchor="middle" fill="#aaa">BUMP F</text>
  
  <circle cx="405" cy="280" r="10" fill="url(#knobGrad)" stroke="#666" stroke-width="0.5"/>
  <circle cx="405" cy="280" r="1.5" fill="#ccc"/>
  <text x="405" y="296" font-family="Arial, sans-serif" font-size="5" text-anchor="middle" fill="#aaa">BUMP G</text>
  
  <circle cx="430" cy="280" r="10" fill="url(#knobGrad)" stroke="#666" stroke-width="0.5"/>
  <circle cx="430" cy="280" r="1.5" fill="#ccc"/>
  <text x="430" y="296" font-family="Arial, sans-serif" font-size="5" text-anchor="middle" fill="#aaa">ROLL F</text>
  
  <circle cx="455" cy="280" r="10" fill="url(#knobGrad)" stroke="#666" stroke-width="0.5"/>
  <circle cx="455" cy="280" r="1.5" fill="#ccc"/>
  <text x="455" y="296" font-family="Arial, sans-serif" font-size="5" text-anchor="middle" fill="#aaa">ROLL Q</text>
  
  <!-- CV inputs -->
  <circle cx="380" cy="320" r="4" fill="url(#portGrad)" stroke="#555" stroke-width="0.5"/>
  <text x="380" y="332" font-family="Arial, sans-serif" font-size="5" text-anchor="middle" fill="#777">SAT</text>
  <circle cx="400" cy="320" r="4" fill="url(#portGrad)" stroke="#555" stroke-width="0.5"/>
  <text x="400" y="332" font-family="Arial, sans-serif" font-size="5" text-anchor="middle" fill="#777">AGE</text>
  <circle cx="420" cy="320" r="4" fill="url(#portGrad)" stroke="#555" stroke-width="0.5"/>
  <text x="420" y="332" font-family="Arial, sans-serif" font-size="5" text-anchor="middle" fill="#777">INST</text>
  <circle cx="440" cy="320" r="4" fill="url(#portGrad)" stroke="#555" stroke-width="0.5"/>
  <text x="440" y="332" font-family="Arial, sans-serif" font-size="5" text-anchor="middle" fill="#777">N-EN</text>
  <circle cx="460" cy="320" r="4" fill="url(#portGrad)" stroke="#555" stroke-width="0.5"/>
  <text x="460" y="332" font-family="Arial, sans-serif" font-size="5" text-anchor="middle" fill="#777">N-AMT</text>
  
  <!-- ===== SECTION 5: MODULATION (480-600px) ===== -->
  
  <!-- Wow controls -->
  <circle cx="510" cy="80" r="16" fill="url(#knobGrad)" stroke="#777" stroke-width="1"/>
  <circle cx="510" cy="80" r="2.5" fill="#ddd"/>
  <text x="510" y="103" font-family="Arial, sans-serif" font-size="7" text-anchor="middle" fill="#bbb">WOW RATE</text>
  
  <circle cx="570" cy="80" r="16" fill="url(#knobGrad)" stroke="#777" stroke-width="1"/>
  <circle cx="570" cy="80" r="2.5" fill="#ddd"/>
  <text x="570" y="103" font-family="Arial, sans-serif" font-size="7" text-anchor="middle" fill="#bbb">WOW DEPTH</text>
  
  <!-- Flutter controls -->
  <circle cx="510" cy="140" r="16" fill="url(#knobGrad)" stroke="#777" stroke-width="1"/>
  <circle cx="510" cy="140" r="2.5" fill="#ddd"/>
  <text x="510" y="163" font-family="Arial, sans-serif" font-size="7" text-anchor="middle" fill="#bbb">FLUTTER RATE</text>
  
  <circle cx="570" cy="140" r="16" fill="url(#knobGrad)" stroke="#777" stroke-width="1"/>
  <circle cx="570" cy="140" r="2.5" fill="#ddd"/>
  <text x="570" y="163" font-family="Arial, sans-serif" font-size="7" text-anchor="middle" fill="#bbb">FLUTTER DEPTH</text>
  
  <!-- Waveform selectors -->
  <circle cx="530" cy="200" r="12" fill="url(#knobGrad)" stroke="#666" stroke-width="0.8"/>
  <circle cx="530" cy="200" r="2" fill="#ddd"/>
  <text x="530" y="218" font-family="Arial, sans-serif" font-size="6" text-anchor="middle" fill="#bbb">WOW WAVE</text>
  <text x="530" y="227" font-family="Arial, sans-serif" font-size="5" text-anchor="middle" fill="#888">Sin/Tri/Rand</text>
  
  <circle cx="550" cy="200" r="12" fill="url(#knobGrad)" stroke="#666" stroke-width="0.8"/>
  <circle cx="550" cy="200" r="2" fill="#ddd"/>
  <text x="550" y="218" font-family="Arial, sans-serif" font-size="6" text-anchor="middle" fill="#bbb">FLUT WAVE</text>
  <text x="550" y="227" font-family="Arial, sans-serif" font-size="5" text-anchor="middle" fill="#888">Sin/Tri/Rand</text>
  
  <!-- CV inputs -->
  <circle cx="500" cy="260" r="4" fill="url(#portGrad)" stroke="#555" stroke-width="0.5"/>
  <text x="500" y="272" font-family="Arial, sans-serif" font-size="5" text-anchor="middle" fill="#777">WR</text>
  <circle cx="520" cy="260" r="4" fill="url(#portGrad)" stroke="#555" stroke-width="0.5"/>
  <text x="520" y="272" font-family="Arial, sans-serif" font-size="5" text-anchor="middle" fill="#777">WD</text>
  <circle cx="540" cy="260" r="4" fill="url(#portGrad)" stroke="#555" stroke-width="0.5"/>
  <text x="540" y="272" font-family="Arial, sans-serif" font-size="5" text-anchor="middle" fill="#777">FR</text>
  <circle cx="560" cy="260" r="4" fill="url(#portGrad)" stroke="#555" stroke-width="0.5"/>
  <text x="560" y="272" font-family="Arial, sans-serif" font-size="5" text-anchor="middle" fill="#777">FD</text>
  
  <!-- ===== SECTION 6: OUTPUT (600-720px) ===== -->
  
  <!-- Output Gain -->
  <circle cx="630" cy="80" r="16" fill="url(#knobGrad)" stroke="#777" stroke-width="1"/>
  <circle cx="630" cy="80" r="2.5" fill="#ddd"/>
  <text x="630" y="103" font-family="Arial, sans-serif" font-size="7" text-anchor="middle" fill="#bbb">OUTPUT</text>
  <text x="630" y="112" font-family="Arial, sans-serif" font-size="7" text-anchor="middle" fill="#bbb">GAIN</text>
  
  <!-- Output Gain CV -->
  <circle cx="630" cy="125" r="5" fill="url(#portGrad)" stroke="#555" stroke-width="0.5"/>
  <text x="630" y="137" font-family="Arial, sans-serif" font-size="6" text-anchor="middle" fill="#888">CV</text>
  
  <!-- Wet-only toggle -->
  <rect x="684" y="76" width="12" height="8" rx="2" fill="#1a1a1a" stroke="#666" stroke-width="0.5"/>
  <text x="690" y="72" font-family="Arial, sans-serif" font-size="6" text-anchor="middle" fill="#aaa">WET ONLY</text>
  <circle cx="690" cy="91" r="2.5" fill="#00ff88"/>
  
  <!-- Main outputs -->
  <circle cx="650" cy="160" r="8" fill="url(#portGrad)" stroke="#666" stroke-width="1"/>
  <text x="650" y="148" font-family="Arial, sans-serif" font-size="7" text-anchor="middle" fill="#bbb">L OUT</text>
  
  <circle cx="680" cy="160" r="8" fill="url(#portGrad)" stroke="#666" stroke-width="1"/>
  <text x="680" y="148" font-family="Arial, sans-serif" font-size="7" text-anchor="middle" fill="#bbb">R OUT</text>
  
  <!-- Wet-only outputs -->
  <circle cx="650" cy="200" r="6" fill="url(#portGrad)" stroke="#666" stroke-width="0.8"/>
  <text x="650" y="190" font-family="Arial, sans-serif" font-size="6" text-anchor="middle" fill="#bbb">WET L</text>
  
  <circle cx="680" cy="200" r="6" fill="url(#portGrad)" stroke="#666" stroke-width="0.8"/>
  <text x="680" y="190" font-family="Arial, sans-serif" font-size="6" text-anchor="middle" fill="#bbb">WET R</text>
  
  <!-- Level meters -->
  <text x="630" y="235" font-family="Arial, sans-serif" font-size="8" font-weight="bold" text-anchor="middle" fill="#aaa">LEVELS</text>
  <text x="650" y="250" font-family="Arial, sans-serif" font-size="6" text-anchor="middle" fill="#777">L</text>
  <text x="680" y="250" font-family="Arial, sans-serif" font-size="6" text-anchor="middle" fill="#777">R</text>
  
  <!-- 5-segment meters -->
  <circle cx="650" cy="260" r="2" fill="#1a1a1a" stroke="#444" stroke-width="0.3"/>
  <circle cx="650" cy="270" r="2" fill="#1a1a1a" stroke="#444" stroke-width="0.3"/>
  <circle cx="650" cy="280" r="2" fill="#1a1a1a" stroke="#444" stroke-width="0.3"/>
  <circle cx="650" cy="290" r="2" fill="#1a1a1a" stroke="#444" stroke-width="0.3"/>
  <circle cx="650" cy="300" r="2" fill="#1a1a1a" stroke="#444" stroke-width="0.3"/>
  
  <circle cx="680" cy="260" r="2" fill="#1a1a1a" stroke="#444" stroke-width="0.3"/>
  <circle cx="680" cy="270" r="2" fill="#1a1a1a" stroke="#444" stroke-width="0.3"/>
  <circle cx="680" cy="280" r="2" fill="#1a1a1a" stroke="#444" stroke-width="0.3"/>
  <circle cx="680" cy="290" r="2" fill="#1a1a1a" stroke="#444" stroke-width="0.3"/>
  <circle cx="680" cy="300" r="2" fill="#1a1a1a" stroke="#444" stroke-width="0.3"/>
  
  <!-- Tuning info display -->
  <rect x="620" y="320" width="90" height="35" rx="4" fill="#0a0a0a" stroke="#444" stroke-width="0.8"/>
  <text x="665" y="332" font-family="Arial, sans-serif" font-size="7" font-weight="bold" text-anchor="middle" fill="#00dd00">TUNING INFO</text>
  <text x="665" y="343" font-family="Arial, sans-serif" font-size="6" text-anchor="middle" fill="#aaa">12-TET Built-in</text>
  <text x="665" y="351" font-family="Arial, sans-serif" font-size="5" text-anchor="middle" fill="#777">Ready</text>
  
  <!-- Bottom line -->
  <line x1="10" y1="375" x2="710" y2="375" stroke="#444" stroke-width="0.8"/>
  
</svg> 