<?xml version="1.0" encoding="UTF-8" standalone="no"?>
<svg xmlns="http://www.w3.org/2000/svg" width="720" height="380" viewBox="0 0 720 380">
  <!-- CurveAndDrag v2.8.0 - 48HP Professional Panel - Exact Widget Coordinate Match -->
  
  <defs>
    <!-- Panel gradient -->
    <linearGradient id="panelGrad" x1="0%" y1="0%" x2="100%" y2="100%">
      <stop offset="0%" style="stop-color:#2a2a2a;stop-opacity:1" />
      <stop offset="50%" style="stop-color:#1e1e1e;stop-opacity:1" />
      <stop offset="100%" style="stop-color:#151515;stop-opacity:1" />
    </linearGradient>
    
    <!-- Knob backgrounds -->
    <radialGradient id="knobGrad" cx="30%" cy="30%" r="70%">
      <stop offset="0%" style="stop-color:#666;stop-opacity:1" />
      <stop offset="100%" style="stop-color:#333;stop-opacity:1" />
    </radialGradient>
    
    <!-- Port backgrounds -->
    <radialGradient id="portGrad" cx="50%" cy="50%" r="50%">
      <stop offset="0%" style="stop-color:#222;stop-opacity:1" />
      <stop offset="100%" style="stop-color:#111;stop-opacity:1" />
    </radialGradient>
  </defs>
  
  <!-- Main panel background -->
  <rect x="0" y="0" width="720" height="380" fill="url(#panelGrad)" stroke="#000" stroke-width="1"/>
  
  <!-- Header -->
  <text x="360" y="25" font-family="Arial, sans-serif" font-size="18" font-weight="bold" text-anchor="middle" fill="#ddd">CURVE&amp;DRAG</text>
  <text x="360" y="40" font-family="Arial, sans-serif" font-size="10" text-anchor="middle" fill="#888">v2.8.0 STUDIO EDITION</text>
  
  <!-- Section labels -->
  <text x="75" y="55" font-family="Arial, sans-serif" font-size="9" font-weight="bold" text-anchor="middle" fill="#aaa">AUDIO I/O</text>
  <text x="195" y="55" font-family="Arial, sans-serif" font-size="9" font-weight="bold" text-anchor="middle" fill="#aaa">DELAY</text>
  <text x="315" y="55" font-family="Arial, sans-serif" font-size="9" font-weight="bold" text-anchor="middle" fill="#aaa">PITCH</text>
  <text x="435" y="55" font-family="Arial, sans-serif" font-size="9" font-weight="bold" text-anchor="middle" fill="#aaa">TAPE</text>
  <text x="555" y="55" font-family="Arial, sans-serif" font-size="9" font-weight="bold" text-anchor="middle" fill="#aaa">WOW/FLUTTER</text>
  <text x="660" y="55" font-family="Arial, sans-serif" font-size="9" font-weight="bold" text-anchor="middle" fill="#aaa">TUNING</text>
  
  <!-- Section dividers -->
  <line x1="10" y1="60" x2="710" y2="60" stroke="#444" stroke-width="1"/>
  <line x1="135" y1="60" x2="135" y2="370" stroke="#333" stroke-width="0.5"/>
  <line x1="255" y1="60" x2="255" y2="370" stroke="#333" stroke-width="0.5"/>
  <line x1="375" y1="60" x2="375" y2="370" stroke="#333" stroke-width="0.5"/>
  <line x1="495" y1="60" x2="495" y2="370" stroke="#333" stroke-width="0.5"/>
  <line x1="615" y1="60" x2="615" y2="370" stroke="#333" stroke-width="0.5"/>
  
  <!-- ===== SECTION 1: AUDIO I/O ===== -->
  
  <!-- Input/Output Gain Knobs (50,85) (100,85) -->
  <circle cx="50" cy="85" r="14" fill="url(#knobGrad)" stroke="#777" stroke-width="1"/>
  <circle cx="50" cy="85" r="2" fill="#ccc"/>
  <text x="50" y="105" font-family="Arial, sans-serif" font-size="7" text-anchor="middle" fill="#bbb">IN GAIN</text>
  
  <circle cx="100" cy="85" r="14" fill="url(#knobGrad)" stroke="#777" stroke-width="1"/>
  <circle cx="100" cy="85" r="2" fill="#ccc"/>
  <text x="100" y="105" font-family="Arial, sans-serif" font-size="7" text-anchor="middle" fill="#bbb">OUT GAIN</text>
  
  <!-- Input Gain CV (50,110) Output Gain CV (100,110) -->
  <circle cx="50" cy="110" r="5" fill="url(#portGrad)" stroke="#555" stroke-width="0.5"/>
  <text x="50" y="125" font-family="Arial, sans-serif" font-size="6" text-anchor="middle" fill="#888">CV</text>
  
  <circle cx="100" cy="110" r="5" fill="url(#portGrad)" stroke="#555" stroke-width="0.5"/>
  <text x="100" y="125" font-family="Arial, sans-serif" font-size="6" text-anchor="middle" fill="#888">CV</text>
  
  <!-- Level meters (25,105+) (105,105+) - 5 segments each -->
  <text x="25" y="100" font-family="Arial, sans-serif" font-size="6" text-anchor="middle" fill="#777">L</text>
  <text x="105" y="100" font-family="Arial, sans-serif" font-size="6" text-anchor="middle" fill="#777">R</text>
  <circle cx="25" cy="105" r="1.5" fill="#1a1a1a" stroke="#444" stroke-width="0.3"/>
  <circle cx="25" cy="115" r="1.5" fill="#1a1a1a" stroke="#444" stroke-width="0.3"/>
  <circle cx="25" cy="125" r="1.5" fill="#1a1a1a" stroke="#444" stroke-width="0.3"/>
  <circle cx="25" cy="135" r="1.5" fill="#1a1a1a" stroke="#444" stroke-width="0.3"/>
  <circle cx="25" cy="145" r="1.5" fill="#1a1a1a" stroke="#444" stroke-width="0.3"/>
  <circle cx="105" cy="105" r="1.5" fill="#1a1a1a" stroke="#444" stroke-width="0.3"/>
  <circle cx="105" cy="115" r="1.5" fill="#1a1a1a" stroke="#444" stroke-width="0.3"/>
  <circle cx="105" cy="125" r="1.5" fill="#1a1a1a" stroke="#444" stroke-width="0.3"/>
  <circle cx="105" cy="135" r="1.5" fill="#1a1a1a" stroke="#444" stroke-width="0.3"/>
  <circle cx="105" cy="145" r="1.5" fill="#1a1a1a" stroke="#444" stroke-width="0.3"/>
  
  <!-- Audio inputs (50,160) (100,160) -->
  <circle cx="50" cy="160" r="6" fill="url(#portGrad)" stroke="#666" stroke-width="0.8"/>
  <text x="50" y="175" font-family="Arial, sans-serif" font-size="7" text-anchor="middle" fill="#bbb">L IN</text>
  
  <circle cx="100" cy="160" r="6" fill="url(#portGrad)" stroke="#666" stroke-width="0.8"/>
  <text x="100" y="175" font-family="Arial, sans-serif" font-size="7" text-anchor="middle" fill="#bbb">R IN</text>
  
  <!-- Main outputs (50,230) (100,230) -->
  <circle cx="50" cy="230" r="6" fill="url(#portGrad)" stroke="#666" stroke-width="0.8"/>
  <text x="50" y="245" font-family="Arial, sans-serif" font-size="7" text-anchor="middle" fill="#bbb">L OUT</text>
  
  <circle cx="100" cy="230" r="6" fill="url(#portGrad)" stroke="#666" stroke-width="0.8"/>
  <text x="100" y="245" font-family="Arial, sans-serif" font-size="7" text-anchor="middle" fill="#bbb">R OUT</text>
  
  <!-- Wet outputs (50,300) (100,300) -->
  <circle cx="50" cy="300" r="6" fill="url(#portGrad)" stroke="#666" stroke-width="0.8"/>
  <text x="50" y="315" font-family="Arial, sans-serif" font-size="7" text-anchor="middle" fill="#bbb">WET L</text>
  
  <circle cx="100" cy="300" r="6" fill="url(#portGrad)" stroke="#666" stroke-width="0.8"/>
  <text x="100" y="315" font-family="Arial, sans-serif" font-size="7" text-anchor="middle" fill="#bbb">WET R</text>
  
  <!-- ===== SECTION 2: DELAY CONTROLS ===== -->
  
  <!-- Time controls (150,85) (240,85) -->
  <circle cx="150" cy="85" r="18" fill="url(#knobGrad)" stroke="#888" stroke-width="1"/>
  <circle cx="150" cy="85" r="3" fill="#ccc"/>
  <text x="150" y="110" font-family="Arial, sans-serif" font-size="7" text-anchor="middle" fill="#bbb">TIME L</text>
  
  <circle cx="240" cy="85" r="18" fill="url(#knobGrad)" stroke="#888" stroke-width="1"/>
  <circle cx="240" cy="85" r="3" fill="#ccc"/>
  <text x="240" y="110" font-family="Arial, sans-serif" font-size="7" text-anchor="middle" fill="#bbb">TIME R</text>
  
  <!-- Feedback controls (150,160) (240,160) -->
  <circle cx="150" cy="160" r="18" fill="url(#knobGrad)" stroke="#888" stroke-width="1"/>
  <circle cx="150" cy="160" r="3" fill="#ccc"/>
  <text x="150" y="185" font-family="Arial, sans-serif" font-size="7" text-anchor="middle" fill="#bbb">FDBK L</text>
  
  <circle cx="240" cy="160" r="18" fill="url(#knobGrad)" stroke="#888" stroke-width="1"/>
  <circle cx="240" cy="160" r="3" fill="#ccc"/>
  <text x="240" y="185" font-family="Arial, sans-serif" font-size="7" text-anchor="middle" fill="#bbb">FDBK R</text>
  
  <!-- Cross-feedback switch (181,130) -->
  <rect x="175" y="125" width="12" height="10" rx="2" fill="#1a1a1a" stroke="#666" stroke-width="0.5"/>
  <text x="181" y="120" font-family="Arial, sans-serif" font-size="6" text-anchor="middle" fill="#aaa">X-FB</text>
  <circle cx="181" cy="142" r="2" fill="#00ff00"/>
  
  <!-- Sync switches (211,130) (150,195) -->
  <rect x="205" y="125" width="12" height="10" rx="2" fill="#1a1a1a" stroke="#666" stroke-width="0.5"/>
  <text x="211" y="120" font-family="Arial, sans-serif" font-size="6" text-anchor="middle" fill="#aaa">SYNC L</text>
  <circle cx="211" cy="142" r="2" fill="#0088ff"/>
  
  <rect x="144" y="190" width="12" height="10" rx="2" fill="#1a1a1a" stroke="#666" stroke-width="0.5"/>
  <text x="150" y="185" font-family="Arial, sans-serif" font-size="6" text-anchor="middle" fill="#aaa">SYNC R</text>
  <circle cx="150" cy="205" r="2" fill="#0088ff"/>
  
  <!-- Mix controls (170,230) (220,230) -->
  <circle cx="170" cy="230" r="14" fill="url(#knobGrad)" stroke="#777" stroke-width="0.8"/>
  <circle cx="170" cy="230" r="2" fill="#ccc"/>
  <text x="170" y="250" font-family="Arial, sans-serif" font-size="7" text-anchor="middle" fill="#bbb">MIX L</text>
  
  <circle cx="220" cy="230" r="14" fill="url(#knobGrad)" stroke="#777" stroke-width="0.8"/>
  <circle cx="220" cy="230" r="2" fill="#ccc"/>
  <text x="220" y="250" font-family="Arial, sans-serif" font-size="7" text-anchor="middle" fill="#bbb">MIX R</text>
  
  <!-- Subdivision knobs (240,195) (240,225) -->
  <circle cx="240" cy="195" r="10" fill="url(#knobGrad)" stroke="#666" stroke-width="0.5"/>
  <circle cx="240" cy="195" r="1.5" fill="#ccc"/>
  <text x="240" y="210" font-family="Arial, sans-serif" font-size="6" text-anchor="middle" fill="#aaa">SUB L</text>
  
  <circle cx="240" cy="225" r="10" fill="url(#knobGrad)" stroke="#666" stroke-width="0.5"/>
  <circle cx="240" cy="225" r="1.5" fill="#ccc"/>
  <text x="240" y="240" font-family="Arial, sans-serif" font-size="6" text-anchor="middle" fill="#aaa">SUB R</text>
  
  <!-- Tap triggers (120,265) (270,265) -->
  <circle cx="120" cy="265" r="5" fill="url(#portGrad)" stroke="#555" stroke-width="0.5"/>
  <text x="120" y="280" font-family="Arial, sans-serif" font-size="5" text-anchor="middle" fill="#777">TAP L</text>
  
  <circle cx="270" cy="265" r="5" fill="url(#portGrad)" stroke="#555" stroke-width="0.5"/>
  <text x="270" y="280" font-family="Arial, sans-serif" font-size="5" text-anchor="middle" fill="#777">TAP R</text>
  
  <!-- CV inputs row 1 (140,300) (177,300) (213,300) (250,300) -->
  <circle cx="140" cy="300" r="5" fill="url(#portGrad)" stroke="#555" stroke-width="0.5"/>
  <text x="140" y="315" font-family="Arial, sans-serif" font-size="5" text-anchor="middle" fill="#777">T-L</text>
  
  <circle cx="177" cy="300" r="5" fill="url(#portGrad)" stroke="#555" stroke-width="0.5"/>
  <text x="177" y="315" font-family="Arial, sans-serif" font-size="5" text-anchor="middle" fill="#777">F-L</text>
  
  <circle cx="213" cy="300" r="5" fill="url(#portGrad)" stroke="#555" stroke-width="0.5"/>
  <text x="213" y="315" font-family="Arial, sans-serif" font-size="5" text-anchor="middle" fill="#777">F-R</text>
  
  <circle cx="250" cy="300" r="5" fill="url(#portGrad)" stroke="#555" stroke-width="0.5"/>
  <text x="250" y="315" font-family="Arial, sans-serif" font-size="5" text-anchor="middle" fill="#777">T-R</text>
  
  <!-- CV inputs row 2 (160,345) (183,345) (207,345) (230,345) -->
  <circle cx="160" cy="345" r="5" fill="url(#portGrad)" stroke="#555" stroke-width="0.5"/>
  <text x="160" y="360" font-family="Arial, sans-serif" font-size="5" text-anchor="middle" fill="#777">MIX L</text>
  
  <circle cx="183" cy="345" r="5" fill="url(#portGrad)" stroke="#555" stroke-width="0.5"/>
  <text x="183" y="360" font-family="Arial, sans-serif" font-size="5" text-anchor="middle" fill="#777">T MOD</text>
  
  <circle cx="207" cy="345" r="5" fill="url(#portGrad)" stroke="#555" stroke-width="0.5"/>
  <text x="207" y="360" font-family="Arial, sans-serif" font-size="5" text-anchor="middle" fill="#777">F MOD</text>
  
  <circle cx="230" cy="345" r="5" fill="url(#portGrad)" stroke="#555" stroke-width="0.5"/>
  <text x="230" y="360" font-family="Arial, sans-serif" font-size="5" text-anchor="middle" fill="#777">MIX R</text>
  
  <!-- ===== SECTION 3: PITCH CONTROLS ===== -->
  
  <!-- SECTION 3: PITCH CONTROLS (255-375px) -->
  <text x="315" y="40" text-anchor="middle" class="section-title">PITCH</text>
  
  <!-- Main pitch knob background -->
  <circle cx="315" cy="100" r="35" fill="url(#knobGrad)" stroke="#444"/>
  <text x="315" y="140" text-anchor="middle" class="label">PITCH</text>
  
  <!-- Detune controls with labels - FIXED: Added L/R detune -->
  <circle cx="260" cy="160" r="15" fill="url(#knobGrad)" stroke="#444"/>
  <text x="260" y="175" text-anchor="middle" class="label">DRIFT</text>
  
  <!-- NEW: Left/Right detune controls -->
  <circle cx="285" cy="135" r="12" fill="url(#knobGrad)" stroke="#444"/>
  <text x="285" y="150" text-anchor="middle" class="small-label">L DET</text>
  
  <circle cx="345" cy="135" r="12" fill="url(#knobGrad)" stroke="#444"/>
  <text x="345" y="150" text-anchor="middle" class="small-label">R DET</text>
  
  <circle cx="370" cy="160" r="15" fill="url(#knobGrad)" stroke="#444"/>
  <text x="370" y="175" text-anchor="middle" class="label">CHAR</text>
  
  <!-- Quantize section -->
  <rect x="305" y="157" width="10" height="6" fill="#333" stroke="#666"/>
  <text x="300" y="175" text-anchor="end" class="label">QUANT</text>
  <circle cx="340" cy="160" r="3" fill="none" stroke="#00aaff"/>
  
  <!-- Morph control -->
  <circle cx="315" cy="185" r="12" fill="url(#knobGrad)" stroke="#444"/>
  <text x="315" y="202" text-anchor="middle" class="label">MORPH</text>
  <circle cx="340" cy="185" r="3" fill="none" stroke="#ffaa00"/>
  
  <!-- Mode and scale selectors -->
  <circle cx="260" cy="210" r="12" fill="url(#knobGrad)" stroke="#444"/>
  <text x="260" y="225" text-anchor="middle" class="small-label">MODE</text>
  
  <circle cx="370" cy="210" r="12" fill="url(#knobGrad)" stroke="#444"/>
  <text x="370" y="225" text-anchor="middle" class="small-label">SCALE</text>
  
  <!-- CV input jacks for pitch section - FIXED: Added L/R detune CV -->
  <circle cx="260" cy="230" r="6" fill="#222" stroke="#666"/>
  <circle cx="285" cy="230" r="6" fill="#222" stroke="#666"/>
  <circle cx="315" cy="230" r="6" fill="#222" stroke="#666"/>
  <circle cx="345" cy="230" r="6" fill="#222" stroke="#666"/>
  <circle cx="370" cy="230" r="6" fill="#222" stroke="#666"/>
  <circle cx="315" cy="300" r="6" fill="#222" stroke="#666"/>
  
  <!-- CV labels -->
  <text x="260" y="245" text-anchor="middle" class="cv-label">DRIFT</text>
  <text x="285" y="245" text-anchor="middle" class="cv-label">L DET</text>
  <text x="315" y="245" text-anchor="middle" class="cv-label">PITCH</text>
  <text x="345" y="245" text-anchor="middle" class="cv-label">R DET</text>
  <text x="370" y="245" text-anchor="middle" class="cv-label">CHAR</text>
  <text x="315" y="315" text-anchor="middle" class="cv-label">MORPH</text>
  
  <!-- ===== SECTION 4: TAPE ENGINE ===== -->
  
  <!-- Tape mode switch (435,85) -->
  <rect x="429" y="80" width="12" height="10" rx="2" fill="#1a1a1a" stroke="#666" stroke-width="0.5"/>
  <text x="435" y="75" font-family="Arial, sans-serif" font-size="7" font-weight="bold" text-anchor="middle" fill="#aaa">TAPE</text>
  <circle cx="465" cy="85" r="3" fill="#ff0000"/>
  
  <!-- Saturation, Head, Aging (390,160) (435,160) (480,160) -->
  <circle cx="390" cy="160" r="18" fill="url(#knobGrad)" stroke="#888" stroke-width="1"/>
  <circle cx="390" cy="160" r="3" fill="#ccc"/>
  <text x="390" y="185" font-family="Arial, sans-serif" font-size="6" text-anchor="middle" fill="#bbb">SATUR</text>
  
  <circle cx="435" cy="160" r="14" fill="url(#knobGrad)" stroke="#777" stroke-width="0.8"/>
  <circle cx="435" cy="160" r="2" fill="#ccc"/>
  <text x="435" y="180" font-family="Arial, sans-serif" font-size="6" text-anchor="middle" fill="#bbb">HEAD</text>
  
  <circle cx="480" cy="160" r="18" fill="url(#knobGrad)" stroke="#888" stroke-width="1"/>
  <circle cx="480" cy="160" r="3" fill="#ccc"/>
  <text x="480" y="185" font-family="Arial, sans-serif" font-size="6" text-anchor="middle" fill="#bbb">AGING</text>
  
  <!-- Instability (435,195) -->
  <circle cx="435" cy="195" r="14" fill="url(#knobGrad)" stroke="#777" stroke-width="0.8"/>
  <circle cx="435" cy="195" r="2" fill="#ccc"/>
  <text x="435" y="215" font-family="Arial, sans-serif" font-size="6" text-anchor="middle" fill="#bbb">UNSTABLE</text>
  
  <!-- Tape CV inputs (390,230) (435,230) (480,230) (435,300) -->
  <circle cx="390" cy="230" r="5" fill="url(#portGrad)" stroke="#555" stroke-width="0.5"/>
  <text x="390" y="245" font-family="Arial, sans-serif" font-size="5" text-anchor="middle" fill="#777">SAT</text>
  
  <circle cx="435" cy="230" r="5" fill="url(#portGrad)" stroke="#555" stroke-width="0.5"/>
  <text x="435" y="245" font-family="Arial, sans-serif" font-size="5" text-anchor="middle" fill="#777">HEAD</text>
  
  <circle cx="480" cy="230" r="5" fill="url(#portGrad)" stroke="#555" stroke-width="0.5"/>
  <text x="480" y="245" font-family="Arial, sans-serif" font-size="5" text-anchor="middle" fill="#777">AGE</text>
  
  <circle cx="435" cy="300" r="5" fill="url(#portGrad)" stroke="#555" stroke-width="0.5"/>
  <text x="435" y="315" font-family="Arial, sans-serif" font-size="5" text-anchor="middle" fill="#777">INST</text>
  
  <!-- ===== SECTION 5: WOW/FLUTTER + EQ ===== -->
  
  <!-- Wow controls (510,85) (600,85) -->
  <circle cx="510" cy="85" r="12" fill="url(#knobGrad)" stroke="#777" stroke-width="0.8"/>
  <circle cx="510" cy="85" r="2" fill="#ccc"/>
  <text x="510" y="105" font-family="Arial, sans-serif" font-size="6" text-anchor="middle" fill="#bbb">WOW RATE</text>
  
  <circle cx="600" cy="85" r="12" fill="url(#knobGrad)" stroke="#777" stroke-width="0.8"/>
  <circle cx="600" cy="85" r="2" fill="#ccc"/>
  <text x="600" y="105" font-family="Arial, sans-serif" font-size="6" text-anchor="middle" fill="#bbb">WOW DEPTH</text>
  
  <!-- Flutter controls (510,160) (600,160) -->
  <circle cx="510" cy="160" r="12" fill="url(#knobGrad)" stroke="#777" stroke-width="0.8"/>
  <circle cx="510" cy="160" r="2" fill="#ccc"/>
  <text x="510" y="180" font-family="Arial, sans-serif" font-size="6" text-anchor="middle" fill="#bbb">FLUTTER RATE</text>
  
  <circle cx="600" cy="160" r="12" fill="url(#knobGrad)" stroke="#777" stroke-width="0.8"/>
  <circle cx="600" cy="160" r="2" fill="#ccc"/>
  <text x="600" y="180" font-family="Arial, sans-serif" font-size="6" text-anchor="middle" fill="#bbb">FLUTTER DEPTH</text>
  
  <!-- Waveform selectors (555,120) (555,140) -->
  <circle cx="555" cy="120" r="10" fill="url(#knobGrad)" stroke="#666" stroke-width="0.5"/>
  <circle cx="555" cy="120" r="1.5" fill="#ccc"/>
  <text x="555" y="135" font-family="Arial, sans-serif" font-size="6" text-anchor="middle" fill="#aaa">W WAVE</text>
  
  <circle cx="555" cy="140" r="10" fill="url(#knobGrad)" stroke="#666" stroke-width="0.5"/>
  <circle cx="555" cy="140" r="1.5" fill="#ccc"/>
  <text x="555" y="155" font-family="Arial, sans-serif" font-size="6" text-anchor="middle" fill="#aaa">F WAVE</text>
  
  <!-- EQ controls (510,230) (540,230) (570,230) (600,230) -->
  <circle cx="510" cy="230" r="10" fill="url(#knobGrad)" stroke="#666" stroke-width="0.5"/>
  <circle cx="510" cy="230" r="1.5" fill="#ccc"/>
  <text x="510" y="249" font-family="Arial, sans-serif" font-size="5" text-anchor="middle" fill="#aaa">BUMP F</text>
  
  <circle cx="540" cy="230" r="10" fill="url(#knobGrad)" stroke="#666" stroke-width="0.5"/>
  <circle cx="540" cy="230" r="1.5" fill="#ccc"/>
  <text x="540" y="249" font-family="Arial, sans-serif" font-size="5" text-anchor="middle" fill="#aaa">BUMP G</text>
  
  <circle cx="570" cy="230" r="10" fill="url(#knobGrad)" stroke="#666" stroke-width="0.5"/>
  <circle cx="570" cy="230" r="1.5" fill="#ccc"/>
  <text x="570" y="249" font-family="Arial, sans-serif" font-size="5" text-anchor="middle" fill="#aaa">ROLL F</text>
  
  <circle cx="600" cy="230" r="10" fill="url(#knobGrad)" stroke="#666" stroke-width="0.5"/>
  <circle cx="600" cy="230" r="1.5" fill="#ccc"/>
  <text x="600" y="249" font-family="Arial, sans-serif" font-size="5" text-anchor="middle" fill="#aaa">ROLL Q</text>
  
  <!-- Noise controls (510,300) (550,300) -->
  <rect x="504" y="295" width="12" height="10" rx="2" fill="#1a1a1a" stroke="#666" stroke-width="0.5"/>
  <text x="510" y="290" font-family="Arial, sans-serif" font-size="6" text-anchor="middle" fill="#aaa">NOISE</text>
  
  <circle cx="550" cy="300" r="10" fill="url(#knobGrad)" stroke="#666" stroke-width="0.5"/>
  <circle cx="550" cy="300" r="1.5" fill="#ccc"/>
  <text x="550" y="319" font-family="Arial, sans-serif" font-size="6" text-anchor="middle" fill="#aaa">AMOUNT</text>
  
  <!-- Additional CV inputs (540,270) (570,270) -->
  <circle cx="540" cy="270" r="5" fill="url(#portGrad)" stroke="#555" stroke-width="0.5"/>
  <text x="540" y="285" font-family="Arial, sans-serif" font-size="5" text-anchor="middle" fill="#777">N CV</text>
  
  <circle cx="570" cy="270" r="5" fill="url(#portGrad)" stroke="#555" stroke-width="0.5"/>
  <text x="570" y="285" font-family="Arial, sans-serif" font-size="5" text-anchor="middle" fill="#777">NA CV</text>
  
  <!-- WF CV inputs (510,345) (540,345) (570,345) (600,345) -->
  <circle cx="510" cy="345" r="5" fill="url(#portGrad)" stroke="#555" stroke-width="0.5"/>
  <text x="510" y="360" font-family="Arial, sans-serif" font-size="5" text-anchor="middle" fill="#777">WR</text>
  
  <circle cx="540" cy="345" r="5" fill="url(#portGrad)" stroke="#555" stroke-width="0.5"/>
  <text x="540" y="360" font-family="Arial, sans-serif" font-size="5" text-anchor="middle" fill="#777">WD</text>
  
  <circle cx="570" cy="345" r="5" fill="url(#portGrad)" stroke="#555" stroke-width="0.5"/>
  <text x="570" y="360" font-family="Arial, sans-serif" font-size="5" text-anchor="middle" fill="#777">FR</text>
  
  <circle cx="600" cy="345" r="5" fill="url(#portGrad)" stroke="#555" stroke-width="0.5"/>
  <text x="600" y="360" font-family="Arial, sans-serif" font-size="5" text-anchor="middle" fill="#777">FD</text>
  
  <!-- ===== SECTION 6: TUNING ===== -->
  
  <!-- MTS-ESP switch (645,75) -->
  <rect x="639" y="70" width="12" height="10" rx="2" fill="#1a1a1a" stroke="#666" stroke-width="0.5"/>
  <text x="645" y="65" font-family="Arial, sans-serif" font-size="6" text-anchor="middle" fill="#aaa">MTS-ESP</text>
  <circle cx="675" cy="75" r="2.5" fill="#00ff00"/>
  
  <!-- Tuning display area (630,100 to 720,150) -->
  <rect x="630" y="100" width="85" height="50" rx="4" fill="#0a0a0a" stroke="#444" stroke-width="0.8"/>
  <text x="672" y="115" font-family="Arial, sans-serif" font-size="8" font-weight="bold" text-anchor="middle" fill="#00dd00">MTS-ESP</text>
  <text x="672" y="127" font-family="Arial, sans-serif" font-size="6" text-anchor="middle" fill="#aaa">12-TET</text>
  <text x="672" y="139" font-family="Arial, sans-serif" font-size="5" text-anchor="middle" fill="#777">Equal Temp</text>
  
  <!-- Bottom line -->
  <line x1="10" y1="370" x2="710" y2="370" stroke="#444" stroke-width="0.8"/>
  
</svg> 